<svg width="128" height="150" viewBox="0 0 128 150" fill="none" xmlns="http://www.w3.org/2000/svg">
<path d="M31.9562 74.0259L0 111.58H31.9562V150L64.9351 111.58V74.0259H31.9562Z" fill="white" fill-opacity="0.05"/>
<path d="M74.3166 38.3115L51.9473 64.9522H74.3166V92.2076L97.4018 64.9522V38.3115H74.3166Z" fill="white" fill-opacity="0.05"/>
<path d="M91.2313 87.0127L70.7793 111.407H91.2313V136.363L112.338 111.407V87.0127H91.2313Z" fill="white" fill-opacity="0.05"/>
<path d="M115.389 37.6621L103.246 52.4268H115.389V67.5322L127.921 52.4268V37.6621H115.389Z" fill="white" fill-opacity="0.05"/>
<path d="M79.0262 0L66.8828 14.7647H79.0262V29.8701L91.5581 14.7647V0H79.0262Z" fill="white" fill-opacity="0.05"/>
<path d="M32.1395 18.1816L11.6875 42.5755H32.1395V67.5323L53.2459 42.5755V18.1816H32.1395Z" fill="white" fill-opacity="0.05"/>
</svg>
