<svg width="12.000000" height="11.333008" viewBox="0 0 12 11.333" fill="none" xmlns="http://www.w3.org/2000/svg" xmlns:xlink="http://www.w3.org/1999/xlink">
	<desc>
			Created with Pixso.
	</desc>
	<defs/>
	<path id="Vector" d="M8.37 7.27L8.06 7.57C8.06 7.57 7.34 8.29 5.37 6.33C3.4 4.37 4.12 3.65 4.12 3.65L4.32 3.46C4.78 2.99 4.83 2.24 4.42 1.69L3.58 0.57C3.07 -0.11 2.08 -0.2 1.5 0.38L0.46 1.42C0.17 1.71 -0.02 2.08 0 2.49C0.06 3.55 0.53 5.83 3.21 8.48C6.04 11.29 8.69 11.41 9.78 11.31C10.12 11.27 10.42 11.1 10.66 10.86L11.61 9.92C12.25 9.28 12.07 8.19 11.25 7.75L9.98 7.05C9.44 6.76 8.79 6.85 8.37 7.27Z" fill="#FFFFFF" fill-opacity="1.000000" fill-rule="nonzero"/>
</svg>
