<svg width="24.000000" height="24.000000" viewBox="0 0 24 24" fill="none" xmlns="http://www.w3.org/2000/svg" xmlns:xlink="http://www.w3.org/1999/xlink">
	<defs>
		<clipPath id="clip442_1178">
			<rect id="basil:gmail-outline" width="24.000000" height="24.000000" fill="white" fill-opacity="0"/>
		</clipPath>
	</defs>
	
	<g clip-path="url(#clip442_1178)">
		<path id="Vector" d="M7.43 7.34C7.33 7.29 7.23 7.27 7.13 7.27C7.02 7.27 6.92 7.3 6.83 7.36C6.74 7.42 6.67 7.5 6.62 7.59C6.57 7.69 6.54 7.8 6.54 7.91L6.54 16.08C6.54 16.25 6.6 16.41 6.72 16.53C6.83 16.65 6.98 16.72 7.14 16.72C7.3 16.72 7.45 16.65 7.57 16.53C7.68 16.41 7.74 16.25 7.74 16.08L7.74 8.99L12.07 11.49C12.25 11.59 12.47 11.59 12.64 11.49L16.97 8.99L16.97 16.08C16.97 16.25 17.04 16.41 17.15 16.53C17.26 16.65 17.41 16.72 17.58 16.72C17.73 16.72 17.89 16.65 18 16.53C18.11 16.41 18.18 16.25 18.18 16.08L18.18 7.91C18.18 7.8 18.15 7.69 18.1 7.59C18.05 7.5 17.97 7.42 17.88 7.36C17.79 7.3 17.69 7.27 17.59 7.27C17.48 7.27 17.38 7.29 17.29 7.34L12.36 10.19L7.43 7.34Z" fill="#1D3557" fill-opacity="1.000000" fill-rule="nonzero"/>
		<path id="Vector" d="M7.39 6.8Q7.26 6.76 7.12 6.77Q6.98 6.77 6.85 6.81Q6.7 6.85 6.56 6.94Q6.46 7 6.37 7.09Q6.26 7.21 6.18 7.36Q6.11 7.48 6.08 7.6Q6.04 7.75 6.04 7.91L6.04 16.08Q6.04 16.2 6.06 16.31Q6.08 16.41 6.12 16.5Q6.17 16.63 6.24 16.74Q6.29 16.81 6.35 16.87Q6.44 16.97 6.55 17.04Q6.62 17.09 6.71 17.13Q6.82 17.18 6.93 17.2Q7.04 17.22 7.14 17.22Q7.25 17.22 7.35 17.2Q7.46 17.18 7.58 17.13Q7.66 17.09 7.74 17.04Q7.84 16.97 7.93 16.87Q8 16.81 8.04 16.74Q8.12 16.63 8.16 16.5Q8.2 16.41 8.22 16.31Q8.24 16.2 8.24 16.08L8.24 9.86L11.82 11.92Q11.95 12 12.09 12.03Q12.22 12.06 12.36 12.06Q12.49 12.06 12.62 12.03Q12.76 12 12.89 11.92L16.47 9.86L16.47 16.08Q16.47 16.2 16.5 16.31Q16.51 16.41 16.55 16.5Q16.6 16.63 16.67 16.74Q16.72 16.81 16.78 16.87Q16.87 16.97 16.98 17.04Q17.06 17.09 17.14 17.13Q17.25 17.18 17.37 17.2Q17.47 17.22 17.58 17.22Q17.68 17.22 17.78 17.2Q17.9 17.18 18.01 17.13Q18.09 17.09 18.17 17.04Q18.28 16.97 18.37 16.87Q18.43 16.81 18.48 16.74Q18.55 16.63 18.6 16.5Q18.63 16.41 18.65 16.31Q18.68 16.2 18.68 16.08L18.68 7.91Q18.68 7.75 18.64 7.6Q18.6 7.48 18.54 7.36Q18.46 7.21 18.34 7.09Q18.26 7 18.15 6.94Q18.02 6.85 17.87 6.81Q17.74 6.77 17.6 6.77Q17.46 6.76 17.33 6.8Q17.18 6.83 17.04 6.91L12.36 9.61L7.68 6.91Q7.54 6.83 7.39 6.8ZM12.36 10.19L7.43 7.34C7.33 7.29 7.23 7.27 7.13 7.27C7.02 7.27 6.92 7.3 6.83 7.36C6.74 7.42 6.67 7.5 6.62 7.59C6.57 7.69 6.54 7.8 6.54 7.91L6.54 16.08C6.54 16.25 6.6 16.41 6.72 16.53C6.83 16.65 6.98 16.72 7.14 16.72C7.3 16.72 7.45 16.65 7.57 16.53C7.68 16.41 7.74 16.25 7.74 16.08L7.74 8.99L8.24 9.28L12.07 11.49C12.25 11.59 12.47 11.59 12.64 11.49L16.47 9.28L16.97 8.99L16.97 16.08C16.97 16.25 17.04 16.41 17.15 16.53C17.26 16.65 17.41 16.72 17.58 16.72C17.73 16.72 17.89 16.65 18 16.53C18.11 16.41 18.18 16.25 18.18 16.08L18.18 7.91C18.18 7.8 18.15 7.69 18.1 7.59C18.05 7.5 17.97 7.42 17.88 7.36C17.79 7.3 17.69 7.27 17.59 7.27C17.48 7.27 17.38 7.29 17.29 7.34L12.36 10.19Z" fill="#1D3557" fill-opacity="1.000000" fill-rule="evenodd"/>
		<path id="Vector" d="M17.31 3.72C13.77 3.4 10.22 3.4 6.68 3.72L5.17 3.85C4.38 3.92 3.63 4.26 3.06 4.8C2.48 5.35 2.1 6.07 1.99 6.86C1.49 10.27 1.49 13.73 1.99 17.13C2.1 17.92 2.48 18.64 3.06 19.19C3.63 19.73 4.38 20.07 5.17 20.14L6.68 20.27C10.22 20.59 13.77 20.59 17.31 20.27L18.82 20.14C19.61 20.07 20.36 19.73 20.93 19.19C21.51 18.64 21.89 17.92 22 17.13C22.5 13.73 22.5 10.27 22 6.86C21.89 6.07 21.51 5.35 20.93 4.8C20.36 4.26 19.61 3.92 18.82 3.85L17.31 3.72ZM6.82 5.21C10.26 4.9 13.73 4.9 17.17 5.21L18.69 5.35C19.15 5.39 19.57 5.58 19.91 5.89C20.24 6.21 20.45 6.62 20.52 7.08C21 10.34 21 13.65 20.52 16.92C20.45 17.37 20.24 17.78 19.91 18.1C19.57 18.41 19.15 18.6 18.69 18.64L17.17 18.78C13.73 19.09 10.26 19.09 6.82 18.78L5.3 18.64C4.85 18.6 4.42 18.41 4.09 18.1C3.75 17.78 3.54 17.37 3.47 16.92C3 13.65 3 10.34 3.47 7.08C3.54 6.62 3.75 6.21 4.09 5.89C4.42 5.58 4.85 5.39 5.3 5.35L6.82 5.21Z" fill="#1D3557" fill-opacity="1.000000" fill-rule="evenodd"/>
		<path id="Vector" d="M6.67 3.52L6.67 3.52L5.15 3.65Q4.83 3.68 4.53 3.76Q4.24 3.84 3.95 3.97Q3.66 4.1 3.4 4.27Q3.15 4.44 2.92 4.66Q2.69 4.87 2.5 5.12Q2.32 5.37 2.17 5.65Q2.03 5.93 1.93 6.22Q1.83 6.52 1.79 6.83Q1.41 9.41 1.41 11.99Q1.41 14.58 1.79 17.16Q1.83 17.47 1.93 17.77Q2.03 18.06 2.17 18.34Q2.32 18.62 2.5 18.87Q2.69 19.12 2.92 19.33Q3.15 19.55 3.41 19.72Q3.66 19.89 3.95 20.02Q4.24 20.15 4.54 20.23Q4.84 20.31 5.15 20.34L6.66 20.47Q9.33 20.71 12 20.71Q14.66 20.71 17.32 20.47L18.84 20.34Q19.15 20.31 19.45 20.23Q19.75 20.15 20.04 20.02Q20.33 19.89 20.58 19.72Q20.84 19.55 21.07 19.33Q21.3 19.12 21.49 18.87Q21.67 18.62 21.82 18.34Q21.96 18.06 22.06 17.77Q22.15 17.47 22.2 17.16Q22.58 14.58 22.58 11.99Q22.58 9.41 22.2 6.83Q22.15 6.52 22.06 6.22Q21.96 5.93 21.82 5.65Q21.67 5.37 21.49 5.12Q21.3 4.87 21.07 4.66Q20.84 4.44 20.58 4.27Q20.33 4.1 20.04 3.97Q19.75 3.84 19.45 3.76Q19.15 3.68 18.84 3.65L17.32 3.52Q14.66 3.28 12 3.28Q9.33 3.28 6.67 3.52ZM17.31 3.72C13.77 3.4 10.22 3.4 6.68 3.72L5.17 3.85C4.38 3.92 3.63 4.26 3.06 4.8C2.48 5.35 2.1 6.07 1.99 6.86C1.49 10.27 1.49 13.73 1.99 17.13C2.1 17.92 2.48 18.64 3.06 19.19C3.63 19.73 4.38 20.07 5.17 20.14L6.68 20.27C10.22 20.59 13.77 20.59 17.31 20.27L18.82 20.14C19.61 20.07 20.36 19.73 20.93 19.19C21.51 18.64 21.89 17.92 22 17.13C22.5 13.73 22.5 10.27 22 6.86C21.89 6.07 21.51 5.35 20.93 4.8C20.36 4.26 19.61 3.92 18.82 3.85L17.31 3.72ZM6.82 5.21C10.26 4.9 13.73 4.9 17.17 5.21L18.69 5.35C19.15 5.39 19.57 5.58 19.91 5.89C20.24 6.21 20.45 6.62 20.52 7.08C21 10.34 21 13.65 20.52 16.92C20.45 17.37 20.24 17.78 19.91 18.1C19.57 18.41 19.15 18.6 18.69 18.64L17.17 18.78C13.73 19.09 10.26 19.09 6.82 18.78L5.3 18.64C4.85 18.6 4.42 18.41 4.09 18.1C3.75 17.78 3.54 17.37 3.47 16.92C3 13.65 3 10.34 3.47 7.08C3.54 6.62 3.75 6.21 4.09 5.89C4.42 5.58 4.85 5.39 5.3 5.35L6.82 5.21ZM17.16 5.41L17.16 5.41L18.67 5.55Q18.83 5.56 18.98 5.6Q19.12 5.64 19.26 5.7Q19.4 5.76 19.53 5.85Q19.66 5.93 19.77 6.04Q19.88 6.14 19.97 6.27Q20.06 6.39 20.13 6.52Q20.2 6.66 20.25 6.81Q20.3 6.95 20.32 7.1Q20.68 9.55 20.68 11.99Q20.68 14.44 20.32 16.89Q20.3 17.04 20.25 17.18Q20.21 17.33 20.13 17.47Q20.06 17.6 19.97 17.72Q19.88 17.85 19.77 17.95Q19.66 18.06 19.53 18.14Q19.4 18.23 19.26 18.29Q19.12 18.35 18.97 18.39Q18.83 18.43 18.67 18.44L17.16 18.58Q14.58 18.81 12 18.81Q9.42 18.81 6.84 18.58L5.32 18.44Q5.16 18.43 5.02 18.39Q4.87 18.35 4.73 18.29Q4.59 18.23 4.46 18.14Q4.34 18.06 4.23 17.95Q4.11 17.85 4.02 17.72Q3.93 17.6 3.86 17.47Q3.79 17.33 3.74 17.18Q3.69 17.04 3.67 16.89Q3.31 14.44 3.31 12Q3.31 9.55 3.67 7.1Q3.69 6.95 3.74 6.81Q3.79 6.66 3.86 6.52Q3.93 6.39 4.02 6.27Q4.11 6.14 4.23 6.04Q4.34 5.93 4.46 5.85Q4.59 5.76 4.73 5.7Q4.87 5.64 5.02 5.6Q5.16 5.56 5.32 5.55L6.84 5.41Q9.41 5.18 11.99 5.18Q14.58 5.18 17.16 5.41Z" fill="#1D3557" fill-opacity="1.000000" fill-rule="evenodd"/>
	</g>
</svg>
