<svg width="33.000000" height="33.000000" viewBox="0 0 33 33" fill="none" xmlns="http://www.w3.org/2000/svg" xmlns:xlink="http://www.w3.org/1999/xlink">
	<desc>
			Created with Pixso.
	</desc>
	<defs>
		<clipPath id="clip425_863">
			<rect id="basil:gmail-outline" width="33.000000" height="33.000000" fill="white" fill-opacity="0"/>
		</clipPath>
	</defs>
	<rect id="basil:gmail-outline" width="33.000000" height="33.000000" fill="#FFFFFF" fill-opacity="0"/>
	<g clip-path="url(#clip425_863)">
		<path id="Vector" d="M10.21 10.1C10.09 10.03 9.95 9.99 9.8 10C9.66 10 9.52 10.04 9.4 10.12C9.28 10.2 9.17 10.31 9.1 10.44C9.03 10.58 9 10.73 9 10.88L9 22.11C9 22.34 9.08 22.57 9.24 22.74C9.39 22.9 9.6 23 9.82 23C10.04 23 10.25 22.9 10.41 22.74C10.56 22.57 10.65 22.34 10.65 22.11L10.65 12.37L16.6 15.8C16.85 15.94 17.14 15.94 17.39 15.8L23.34 12.37L23.34 22.11C23.34 22.34 23.43 22.57 23.58 22.74C23.74 22.9 23.95 23 24.17 23C24.39 23 24.6 22.9 24.75 22.74C24.91 22.57 25 22.34 25 22.11L25 10.88C25 10.73 24.96 10.58 24.89 10.44C24.82 10.31 24.71 10.2 24.59 10.12C24.47 10.04 24.33 10 24.19 10C24.04 9.99 23.9 10.03 23.78 10.1L17 14.01L10.21 10.1Z" fill="#FFFFFF" fill-opacity="1.000000" fill-rule="nonzero"/>
		<path id="Vector" d="M10.12 9.53Q9.96 9.49 9.79 9.5Q9.63 9.5 9.48 9.54Q9.3 9.59 9.13 9.7Q9 9.78 8.9 9.88Q8.76 10.02 8.66 10.21Q8.58 10.35 8.55 10.5Q8.5 10.69 8.5 10.88L8.5 22.11Q8.5 22.26 8.52 22.4Q8.55 22.51 8.59 22.63Q8.65 22.78 8.74 22.91Q8.8 23 8.87 23.08Q8.98 23.2 9.12 23.28Q9.21 23.34 9.3 23.38Q9.44 23.44 9.58 23.47Q9.7 23.5 9.82 23.5Q9.95 23.5 10.07 23.47Q10.21 23.44 10.34 23.38Q10.44 23.34 10.53 23.28Q10.66 23.2 10.77 23.08Q10.85 23 10.91 22.91Q11 22.78 11.05 22.63Q11.1 22.51 11.12 22.4Q11.15 22.26 11.15 22.11L11.15 13.23L16.35 16.23Q16.51 16.32 16.68 16.37Q16.83 16.4 17 16.4Q17.16 16.4 17.3 16.37Q17.48 16.32 17.64 16.23L22.84 13.23L22.84 22.11Q22.84 22.26 22.87 22.4Q22.89 22.51 22.94 22.63Q23 22.78 23.08 22.91Q23.14 23 23.22 23.08Q23.33 23.2 23.46 23.28Q23.55 23.34 23.65 23.38Q23.78 23.44 23.92 23.47Q24.04 23.5 24.17 23.5Q24.29 23.5 24.41 23.47Q24.55 23.44 24.69 23.38Q24.78 23.34 24.87 23.28Q25.01 23.2 25.12 23.08Q25.19 23 25.25 22.91Q25.34 22.78 25.4 22.63Q25.44 22.51 25.47 22.4Q25.5 22.26 25.5 22.11L25.5 10.88Q25.5 10.69 25.44 10.5Q25.41 10.35 25.33 10.21Q25.23 10.02 25.09 9.88Q24.99 9.78 24.86 9.7Q24.69 9.59 24.51 9.54Q24.36 9.5 24.2 9.5Q24.03 9.49 23.87 9.53Q23.69 9.57 23.53 9.67L17 13.43L10.46 9.67Q10.3 9.57 10.12 9.53ZM17 14.01L10.21 10.1C10.09 10.03 9.95 9.99 9.8 10C9.66 10 9.52 10.04 9.4 10.12C9.28 10.2 9.17 10.31 9.1 10.44C9.03 10.58 9 10.73 9 10.88L9 22.11C9 22.34 9.08 22.57 9.24 22.74C9.39 22.9 9.6 23 9.82 23C10.04 23 10.25 22.9 10.41 22.74C10.56 22.57 10.65 22.34 10.65 22.11L10.65 12.37L11.15 12.65L16.6 15.8C16.85 15.94 17.14 15.94 17.39 15.8L22.84 12.65L23.34 12.37L23.34 22.11C23.34 22.34 23.43 22.57 23.58 22.74C23.74 22.9 23.95 23 24.17 23C24.39 23 24.6 22.9 24.75 22.74C24.91 22.57 25 22.34 25 22.11L25 10.88C25 10.73 24.96 10.58 24.89 10.44C24.82 10.31 24.71 10.2 24.59 10.12C24.47 10.04 24.33 10 24.19 10C24.04 9.99 23.9 10.03 23.78 10.1L17 14.01Z" fill="#FFFFFF" fill-opacity="1.000000" fill-rule="evenodd"/>
		<path id="Vector" d="M23.8 5.11C18.94 4.68 14.05 4.68 9.19 5.11L7.1 5.3C6.02 5.4 5 5.86 4.2 6.61C3.41 7.36 2.89 8.35 2.73 9.43C2.05 14.12 2.05 18.87 2.73 23.56C2.89 24.64 3.41 25.63 4.21 26.38C5 27.13 6.02 27.59 7.11 27.69L9.19 27.88C14.05 28.31 18.94 28.31 23.8 27.88L25.88 27.69C26.97 27.59 27.99 27.13 28.79 26.38C29.58 25.63 30.1 24.64 30.25 23.56C30.94 18.87 30.94 14.12 30.25 9.43C30.1 8.35 29.58 7.36 28.78 6.61C27.99 5.86 26.97 5.39 25.88 5.3L23.8 5.11ZM9.38 7.17C14.11 6.74 18.88 6.74 23.62 7.17L25.7 7.35C26.33 7.41 26.91 7.67 27.37 8.11C27.83 8.54 28.12 9.11 28.21 9.73C28.87 14.22 28.87 18.77 28.21 23.26C28.12 23.88 27.83 24.45 27.37 24.88C26.91 25.32 26.33 25.58 25.7 25.64L23.62 25.82C18.88 26.25 14.11 26.25 9.38 25.82L7.29 25.64C6.67 25.58 6.08 25.32 5.62 24.88C5.17 24.45 4.87 23.88 4.78 23.26C4.12 18.77 4.12 14.22 4.78 9.73C4.87 9.11 5.17 8.54 5.62 8.11C6.08 7.67 6.67 7.41 7.29 7.35L9.38 7.17Z" fill="#FFFFFF" fill-opacity="1.000000" fill-rule="evenodd"/>
		<path id="Vector" d="M9.17 4.91L9.17 4.91L7.09 5.1Q6.66 5.14 6.26 5.24Q5.85 5.35 5.46 5.53Q5.07 5.7 4.73 5.93Q4.37 6.17 4.07 6.46Q3.76 6.75 3.5 7.09Q3.25 7.42 3.05 7.8Q2.86 8.18 2.73 8.58Q2.6 8.98 2.54 9.4Q2.28 11.16 2.15 12.94Q2.02 14.71 2.02 16.5Q2.02 18.28 2.15 20.05Q2.28 21.82 2.54 23.59Q2.6 24.01 2.73 24.41Q2.86 24.81 3.05 25.19Q3.25 25.56 3.5 25.9Q3.76 26.24 4.07 26.53Q4.38 26.82 4.73 27.06Q5.07 27.29 5.46 27.46Q5.85 27.64 6.26 27.75Q6.67 27.85 7.09 27.89L9.17 28.08Q12.83 28.4 16.5 28.4Q20.16 28.4 23.82 28.08L25.9 27.89Q26.33 27.85 26.73 27.75Q27.14 27.64 27.53 27.46Q27.92 27.29 28.26 27.05Q28.61 26.82 28.92 26.53Q29.23 26.24 29.49 25.9Q29.74 25.56 29.94 25.19Q30.13 24.81 30.26 24.41Q30.39 24.01 30.45 23.59Q30.71 21.82 30.84 20.05Q30.97 18.28 30.97 16.5Q30.97 14.71 30.84 12.94Q30.71 11.17 30.45 9.4Q30.39 8.98 30.26 8.58Q30.13 8.18 29.94 7.8Q29.74 7.42 29.49 7.09Q29.23 6.75 28.92 6.46Q28.61 6.17 28.26 5.93Q27.92 5.7 27.53 5.52Q27.14 5.35 26.73 5.24Q26.32 5.14 25.9 5.1L23.82 4.91Q20.16 4.59 16.5 4.59Q12.84 4.59 9.17 4.91ZM23.8 5.11C18.94 4.68 14.05 4.68 9.19 5.11L7.1 5.3C6.02 5.4 5 5.86 4.2 6.61C3.41 7.36 2.89 8.35 2.73 9.43C2.05 14.12 2.05 18.87 2.73 23.56C2.89 24.64 3.41 25.63 4.21 26.38C5 27.13 6.02 27.59 7.11 27.69L9.19 27.88C14.05 28.31 18.94 28.31 23.8 27.88L25.88 27.69C26.97 27.59 27.99 27.13 28.79 26.38C29.58 25.63 30.1 24.64 30.25 23.56C30.94 18.87 30.94 14.12 30.25 9.43C30.1 8.35 29.58 7.36 28.78 6.61C27.99 5.86 26.97 5.39 25.88 5.3L23.8 5.11ZM9.38 7.17C14.11 6.74 18.88 6.74 23.62 7.17L25.7 7.35C26.33 7.41 26.91 7.67 27.37 8.11C27.83 8.54 28.12 9.11 28.21 9.73C28.87 14.22 28.87 18.77 28.21 23.26C28.12 23.88 27.83 24.45 27.37 24.88C26.91 25.32 26.33 25.58 25.7 25.64L23.62 25.82C18.88 26.25 14.11 26.25 9.38 25.82L7.29 25.64C6.67 25.58 6.08 25.32 5.62 24.88C5.17 24.45 4.87 23.88 4.78 23.26C4.12 18.77 4.12 14.22 4.78 9.73C4.87 9.11 5.17 8.54 5.62 8.11C6.08 7.67 6.67 7.41 7.29 7.35L9.38 7.17ZM16.5 7.05Q20.05 7.05 23.6 7.37L23.6 7.37L25.68 7.55Q25.9 7.57 26.11 7.63Q26.32 7.68 26.52 7.77Q26.72 7.86 26.89 7.98Q27.07 8.1 27.23 8.25Q27.39 8.4 27.52 8.57Q27.65 8.75 27.75 8.94Q27.85 9.13 27.92 9.34Q27.99 9.54 28.02 9.76Q28.26 11.44 28.39 13.13Q28.51 14.81 28.51 16.5Q28.51 18.18 28.39 19.86Q28.26 21.55 28.02 23.23Q27.99 23.45 27.92 23.65Q27.85 23.86 27.75 24.05Q27.65 24.25 27.52 24.42Q27.39 24.59 27.23 24.74Q27.07 24.89 26.89 25.01Q26.72 25.13 26.52 25.22Q26.32 25.31 26.11 25.36Q25.9 25.42 25.68 25.44L23.6 25.62Q20.05 25.94 16.5 25.94Q12.95 25.94 9.4 25.62L7.31 25.44Q7.09 25.42 6.88 25.36Q6.67 25.31 6.48 25.22Q6.28 25.13 6.1 25.01Q5.92 24.89 5.76 24.74Q5.6 24.59 5.47 24.42Q5.34 24.25 5.24 24.05Q5.14 23.86 5.07 23.65Q5.01 23.45 4.98 23.23Q4.73 21.56 4.61 19.88Q4.48 18.19 4.48 16.5Q4.48 14.8 4.61 13.12Q4.73 11.43 4.98 9.76Q5.01 9.54 5.07 9.34Q5.14 9.13 5.24 8.94Q5.34 8.75 5.47 8.57Q5.6 8.4 5.76 8.25Q5.92 8.1 6.1 7.98Q6.28 7.86 6.48 7.77Q6.67 7.68 6.88 7.63Q7.09 7.57 7.31 7.55L9.4 7.37Q12.94 7.05 16.5 7.05Z" fill="#FFFFFF" fill-opacity="1.000000" fill-rule="evenodd"/>
	</g>
</svg>
