<svg width="23.000000" height="23.000000" viewBox="0 0 23 23" fill="none" xmlns="http://www.w3.org/2000/svg" xmlns:xlink="http://www.w3.org/1999/xlink">
	<desc>
			Created with Pixso.
	</desc>
	<defs/>
	<path id="Vector" d="M6.67 0L16.32 0C20.01 0 23 2.99 23 6.66L23 16.33C23 18.09 22.29 19.79 21.04 21.04C19.79 22.29 18.09 23 16.32 23L6.67 23C2.98 23 0 20 0 16.33L0 6.66C0 4.9 0.7 3.2 1.95 1.95C3.2 0.7 4.9 0 6.67 0ZM6.44 2.29C5.34 2.29 4.28 2.73 3.51 3.51C2.73 4.28 2.3 5.34 2.3 6.43L2.3 16.56C2.3 18.84 4.15 20.7 6.44 20.7L16.55 20.7C17.65 20.7 18.71 20.26 19.48 19.48C20.26 18.71 20.69 17.65 20.69 16.56L20.69 6.43C20.69 4.15 18.84 2.29 16.55 2.29L6.44 2.29ZM17.53 4.02C17.91 4.02 18.28 4.17 18.55 4.44C18.82 4.71 18.97 5.08 18.97 5.46C18.97 5.84 18.82 6.2 18.55 6.47C18.28 6.74 17.91 6.89 17.53 6.89C17.15 6.89 16.78 6.74 16.51 6.47C16.25 6.2 16.1 5.84 16.1 5.46C16.1 5.08 16.25 4.71 16.51 4.44C16.78 4.17 17.15 4.02 17.53 4.02ZM11.5 5.75C13.02 5.75 14.48 6.35 15.56 7.43C16.64 8.51 17.25 9.97 17.25 11.5C17.25 13.02 16.64 14.48 15.56 15.56C14.48 16.64 13.02 17.25 11.5 17.25C9.97 17.25 8.51 16.64 7.43 15.56C6.35 14.48 5.75 13.02 5.75 11.5C5.75 9.97 6.35 8.51 7.43 7.43C8.51 6.35 9.97 5.75 11.5 5.75ZM11.5 8.04C10.58 8.04 9.7 8.41 9.05 9.06C8.41 9.7 8.05 10.58 8.05 11.5C8.05 12.41 8.41 13.29 9.05 13.93C9.7 14.58 10.58 14.95 11.5 14.95C12.41 14.95 13.29 14.58 13.94 13.93C14.58 13.29 14.94 12.41 14.94 11.5C14.94 10.58 14.58 9.7 13.94 9.06C13.29 8.41 12.41 8.04 11.5 8.04Z" fill="#FFFFFF" fill-opacity="1.000000" fill-rule="nonzero"/>
</svg>
