<svg width="25.000000" height="24.000000" viewBox="0 0 25 24" fill="none" xmlns="http://www.w3.org/2000/svg" xmlns:xlink="http://www.w3.org/1999/xlink">
	<desc>
			Created with Pixso.
	</desc>
	<defs/>
	<path id="Vector" d="M21.35 3.49C20.2 2.38 18.83 1.49 17.32 0.89C15.8 0.3 14.18 -0.01 12.55 0C5.69 0 0.1 5.33 0.1 11.89C0.1 13.99 0.67 16.03 1.75 17.83L0 24L6.59 22.34C8.41 23.29 10.46 23.79 12.55 23.79C19.41 23.79 25 18.45 25 11.9C25 8.72 23.7 5.73 21.35 3.49ZM12.55 21.77C10.69 21.77 8.87 21.29 7.27 20.39L6.89 20.18L2.97 21.16L4.01 17.52L3.76 17.14C2.73 15.57 2.18 13.75 2.18 11.89C2.18 6.44 6.83 2 12.53 2C15.3 2 17.9 3.03 19.84 4.9C20.81 5.82 21.57 6.91 22.09 8.11C22.61 9.31 22.88 10.6 22.87 11.9C22.9 17.35 18.25 21.77 12.55 21.77ZM18.23 14.38C17.91 14.24 16.38 13.52 16.1 13.41C15.81 13.31 15.61 13.27 15.4 13.56C15.18 13.85 14.59 14.53 14.42 14.72C14.24 14.92 14.05 14.95 13.74 14.79C13.42 14.65 12.42 14.32 11.24 13.31C10.31 12.52 9.69 11.55 9.51 11.25C9.33 10.95 9.48 10.79 9.64 10.64C9.78 10.51 9.96 10.29 10.11 10.12C10.26 9.95 10.32 9.82 10.42 9.63C10.52 9.43 10.47 9.26 10.4 9.12C10.32 8.97 9.69 7.51 9.44 6.91C9.19 6.33 8.93 6.4 8.74 6.39L8.14 6.39C7.92 6.39 7.6 6.46 7.31 6.76C7.03 7.06 6.23 7.78 6.23 9.25C6.23 10.71 7.34 12.13 7.5 12.32C7.65 12.52 9.69 15.52 12.81 16.81C13.55 17.12 14.13 17.3 14.58 17.43C15.32 17.66 16 17.62 16.54 17.55C17.14 17.47 18.39 16.83 18.64 16.14C18.9 15.44 18.9 14.85 18.82 14.72C18.73 14.59 18.54 14.53 18.23 14.38Z" fill="#FFFFFF" fill-opacity="1.000000" fill-rule="nonzero"/>
</svg>
